# xmcd CD database file
#
# Track frame offsets:
#	150
#	23872
#	56439
#	76356
#	101150
#	118708
#	147195
#	177601
#	210221
#	229217
#	253364
#	280645
#
# Disc length: 4059 seconds
#
# Revision: 0
# Processed by: cddbd v1.5.2PL0 Copyright (c) Steve Scherf et al.
# Submitted via: CDex 1.51
#
DISCID=a90fd90c
DTITLE=Kenny G - Rhythm and Romance
DYEAR=2008
DGENRE=Jazz
TTITLE0=Sax-o-loco
TTITLE1=Ritmo y Romance (Rhythm and Romance)
TTITLE2=Sabor a Mi
TTITLE3=Tango
TTITLE4=Mirame Bailar
TTITLE5=Peruvian Nights
TTITLE6=Brasilia
TTITLE7=Besame Mucho
TTITLE8=Fiesta Loca
TTITLE9=Es Hora de Decir
TTITLE10=Copa de Amor
TTITLE11=Salsa Kenny
EXTD=YEAR: 2008
EXTT0=
EXTT1=
EXTT2=
EXTT3=
EXTT4=
EXTT5=
EXTT6=
EXTT7=
EXTT8=
EXTT9=
EXTT10=
EXTT11=
PLAYORDER=
